<svg class="icon" viewBox="0 0 1024 1024" version="1.1" xmlns="http://www.w3.org/2000/svg" width="200" height="200">
    <path
        d="M0 0m204.8 0l614.4 0q204.8 0 204.8 204.8l0 614.4q0 204.8-204.8 204.8l-614.4 0q-204.8 0-204.8-204.8l0-614.4q0-204.8 204.8-204.8Z"
        fill="#D9D9D9"></path>
    <path
        d="M446.91456 485.376c5.07904-6.144 12.12416-9.216 21.13536-9.216 9.17504 0 16.1792 2.90816 21.01248 8.72448 4.83328 5.98016 7.24992 14.09024 7.24992 24.33024s-2.41664 18.26816-7.24992 24.08448c-4.9152 5.81632-11.91936 8.72448-21.01248 8.72448-9.17504 0-16.22016-3.03104-21.13536-9.09312-4.75136-5.81632-7.12704-13.7216-7.12704-23.71584 0-10.07616 2.37568-18.0224 7.12704-23.83872z"
        fill="#2E3137"></path>
    <path
        d="M327.68 163.84h368.64a81.92 81.92 0 0 1 81.92 81.92v778.24H245.76V245.76a81.92 81.92 0 0 1 81.92-81.92z m219.79136 184.32L512 286.72l-35.47136 61.44h70.94272z m0 327.68h-70.94272L512 737.28l35.47136-61.44zM348.16 476.52864L286.72 512l61.44 35.47136v-70.94272z m327.68 0v70.94272L737.28 512l-61.44-35.47136zM368.64 983.04a40.96 40.96 0 1 0 0-81.92 40.96 40.96 0 0 0 0 81.92z m286.72 0a40.96 40.96 0 1 0 0-81.92 40.96 40.96 0 0 0 0 81.92z m-155.60704-506.51136c-7.70048-8.68352-18.26816-13.02528-31.70304-13.02528-13.59872 0-24.1664 4.38272-31.70304 13.14816-7.29088 8.27392-10.93632 19.12832-10.93632 32.5632 0 13.35296 3.64544 24.1664 10.93632 32.44032 7.70048 8.68352 18.26816 13.02528 31.70304 13.02528s24.00256-4.3008 31.70304-12.9024c7.3728-8.27392 11.0592-19.12832 11.0592-32.5632 0-13.59872-3.6864-24.49408-11.0592-32.68608z m79.81056-11.30496l-40.79616 41.41056v-41.41056h-14.37696V552.96h14.37696v-30.22848l10.69056-10.4448L584.0896 552.96h19.41504l-44.35968-50.13504 38.58432-37.60128h-18.18624z"
        fill="#2E3137"></path>
</svg>