<svg class="icon" viewBox="0 0 1056 1024" version="1.1" xmlns="http://www.w3.org/2000/svg" width="200" height="200">
    <path
        d="M897.997263 963.637285h-233.99095c-22.63457-22.63457-37.728145-83.008869-75.456289-83.008869h-113.196019c-37.728145 0-60.362715 52.821719-75.456289 83.008869h-233.875113c-22.63457 0-37.728145 15.058824-30.18715 30.187149a32.434389 32.434389 0 0 0 30.18715 30.198733h731.97466a30.187149 30.187149 0 0 0 0-60.374298z m22.63457-963.648869h-792.325791A132.239638 132.239638 0 0 0 0.004865 128.278009v542.441991a127.18914 127.18914 0 0 0 128.289593 128.289593h792.325792c75.45629 0 135.830588-52.821719 135.830588-128.289593V128.278009C1056.462422 60.362715 996.122874 0.023167 920.631833 0.023167zM185.633824 115.559095h387.139186c19.947149 0 31.171765 16.217195 31.171765 36.106425a36.118009 36.118009 0 0 1-36.118009 36.118009H415.315634v331.189865a36.118009 36.118009 0 1 1-72.224434 0V187.783529H185.633824a36.118009 36.118009 0 1 1 0-72.224434z m675.330317 578.432579h-675.330317a36.118009 36.118009 0 0 1 0-72.224434h675.330317a36.118009 36.118009 0 1 1 0 72.224434z m0-169.319095H734.562693a36.118009 36.118009 0 0 1 0-72.224434h126.401448a36.118009 36.118009 0 0 1 0 72.224434z m0-169.319095H734.562693a36.118009 36.118009 0 0 1 0-72.224434h126.401448a36.118009 36.118009 0 0 1 0 72.224434z m0-169.319095H734.562693a36.118009 36.118009 0 0 1 0-72.224434h126.401448a36.118009 36.118009 0 1 1 0 72.224434z"
        fill="currentColor"></path>
</svg>